<svg xmlns="http://www.w3.org/2000/svg"  viewBox="0 0 64 64" width="64px" height="64px"><radialGradient id="nJ5TvivVyghDKqtRHOxlIa" cx="33.211" cy="34.927" r="35.744" gradientTransform="matrix(1 0 0 -1 0 66)" gradientUnits="userSpaceOnUse"><stop offset="0" stop-color="#ecd5a0"/><stop offset=".106" stop-color="#efdaa9"/><stop offset=".437" stop-color="#f6e6c1"/><stop offset=".744" stop-color="#faedd0"/><stop offset="1" stop-color="#fdf0d5"/></radialGradient><path fill="url(#nJ5TvivVyghDKqtRHOxlIa)" d="M60.5,45H53v-5h7.302c1.895,0,3.594-1.419,3.693-3.312C64.101,34.67,62.495,33,60.5,33H53v-6	h7.358c1.308,0,2.499-0.941,2.629-2.242C63.137,23.261,61.966,22,60.5,22c-0.828,0-1.5-0.671-1.5-1.5s0.672-1.5,1.5-1.5	c1.995,0,3.6-1.669,3.495-3.688C63.896,13.42,62.198,12,60.302,12h-1.195c-0.996,0-1.92-0.681-2.08-1.664	C56.823,9.083,57.785,8,59,8h0.049C60.679,8,62,6.679,62,5.049V4.951C62,3.321,60.679,2,59.049,2H4.951C3.321,2,2,3.321,2,4.951	v0.156c0,1.618,1.328,2.925,2.953,2.892c0.993-0.02,1.899,0.744,2.029,1.728C7.144,10.953,6.194,12,5,12H3.698	c-1.895,0-3.594,1.42-3.693,3.312C-0.1,17.331,1.505,19,3.5,19h5c1.381,0,2.5,1.119,2.5,2.5l0,0c0,1.381-1.119,2.5-2.5,2.5H3.698	c-1.895,0-3.594,1.419-3.693,3.312C-0.101,29.33,1.505,31,3.5,31H11v6H3.642c-1.308,0-2.5,0.941-2.629,2.243	C0.864,40.739,2.034,42,3.5,42C4.328,42,5,42.671,5,43.5S4.328,45,3.5,45c-1.995,0-3.6,1.669-3.495,3.688	C0.104,50.58,1.802,52,3.698,52h1.195c0.996,0,1.92,0.681,2.08,1.664C7.177,54.917,6.215,56,5,56H4.951C3.321,56,2,57.321,2,58.951	v0.098C2,60.679,3.321,62,4.951,62h54.098C60.679,62,62,60.679,62,59.049v-0.156c0-1.618-1.328-2.925-2.953-2.892	c-0.993,0.02-1.899-0.744-2.029-1.728C56.856,53.047,57.806,52,59,52h1.302c1.733,0,3.347-1.166,3.643-2.873	C64.329,46.918,62.639,45,60.5,45z"/><linearGradient id="nJ5TvivVyghDKqtRHOxlIb" x1="32" x2="32" y1="6.059" y2="94.654" gradientTransform="matrix(1 0 0 -1 0 66)" gradientUnits="userSpaceOnUse"><stop offset="0" stop-color="#005ce2"/><stop offset=".278" stop-color="#0080e8"/><stop offset=".569" stop-color="#009ced"/><stop offset=".82" stop-color="#00b0f1"/><stop offset="1" stop-color="#00b5f2"/></linearGradient><path fill="url(#nJ5TvivVyghDKqtRHOxlIb)" d="M55,19v26c0,5.523-4.477,10-10,10H19c-5.523,0-10-4.477-10-10V19c0-5.523,4.477-10,10-10h26	C50.523,9,55,13.477,55,19z"/><path fill="#fff" d="M21.306,28.922c-3.305-1.686-4.462-1.903-7.023-1.73s-2.561,1.514-1.942,1.557	c0.306,0.022,0.625,0.072,0.785,0.087c0.294,0.027,0.333-0.174,0.124-0.302c-0.209-0.129-0.743-0.346-0.743-0.346	s3.223-0.865,7.229,1.167s5.04,4.671,3.925,5.968c-1.115,1.297-3.057,1.946-5.453,1.384c-0.041-1.774,0.041-3.071,0.041-3.071	s2.231-0.087,2.81,0.346c0.579,0.432-0.261,0.606-0.289,0.821c-0.028,0.216,0.95,0.476,1.322,0s0.785-2.508-3.759-2.379	c-0.083-0.821,0.166-1.384-0.496-2.205c-0.661-0.821-0.661,2.249-0.661,2.249s-1.694,0.259-3.099,1.297s2.892,3.546,2.892,3.546	s0.083,1.125,0.702,1.254s0.579-0.821,0.579-0.821s3.718,1.125,6.197-1.167C26.925,34.284,24.611,30.608,21.306,28.922z M17.01,36.403c0,0-1.405-0.606-2.19-1.341c-0.785-0.735-0.537-0.865-0.166-0.951s1.818-0.476,2.437-0.476L17.01,36.403z"/><path fill="#fff" d="M26.057,32.685c0,0-0.207,2.508-0.124,4.065c0.041,0.649,1.033,0.778,1.033,0.13	c0-0.649-0.041-3.244-0.124-3.763C26.759,32.598,26.305,32.165,26.057,32.685z"/><path fill="#fff" d="M31.676,32.381c0,0-2.272-0.519-3.801,0.519c-0.743,0.519-0.537,1.471-0.124,1.514	s2.52,0.13,3.016,0.476s0.62,0.606,0.083,0.951c-0.537,0.346-1.735,0.519-2.231,0.346s-0.661-1.081,0.247-0.606	c0.909,0.476,2.561-0.087,1.446-0.476s-2.024-0.302-2.603,0.13s0.207,1.341,0.868,1.643c0.661,0.302,1.901,0.389,2.644-0.087	s1.115-2.292-0.083-2.594c-1.198-0.302-1.942-0.259-2.479-0.346s-0.289-0.302,0.579-0.389s1.488-0.13,2.231-0.259	C32.212,33.074,32.254,32.511,31.676,32.381z"/><path fill="#fff" d="M34.733,33.03c0.083,0.389,0.413,1.86,0.413,2.465c-0.413-0.649-1.075-1.946-1.652-2.551	c-0.579-0.606-0.743-0.087-0.743-0.087s-0.579,2.205-0.413,3.633c0.166,1.427,0.868,0.432,0.909,0s0.124-1.86,0.124-2.249	c0.372,0.865,0.95,1.86,1.405,2.335s0.909,0.173,1.075-0.259s0.702-2.768-0.579-4.324S34.65,32.641,34.733,33.03z"/><path fill="#fff" d="M39.153,35.668c-0.454,0.043-1.777,0.259-1.777,0.259l0.289-0.908c0,0,0.868,0.043,1.57-0.043	c0.702-0.087,0.207-0.908-0.041-0.908c-0.247,0-1.156,0-1.156,0l0.207-0.606c0,0,1.528-0.043,2.024-0.13s-0.289-0.951-0.868-0.995	c-0.579-0.043-1.818,0.13-2.644,0.302c-0.826,0.173,0.537,0.821,0.537,0.821s-0.124,0.432-0.289,0.735	c-0.496,0.087-0.454,0.389-0.289,0.778c-0.33,0.908-0.496,2.033,0.454,2.379c0.95,0.346,2.065-0.562,2.52-0.951	S39.607,35.625,39.153,35.668z"/><path fill="#fff" d="M42.665,33.117c-0.62,0.649-1.694,2.335-1.694,2.335c0.124-1.125,0.413-1.427,1.075-2.551	c0.565-0.96-0.33-0.606-0.33-0.606s-2.107,1.86-1.198,3.978c-0.62,1.6-1.611,3.892-0.166,5.103c0.372,0.259,0.247-0.519,0.372-0.951	c0.124-0.432,0.537-2.638,0.95-3.244c0.992-0.087,2.768-0.476,3.057-3.287C44.854,32.079,43.285,32.468,42.665,33.117z M43.945,34.544c-0.413,1.167-1.818,1.341-1.818,1.341s0.909-1.557,1.363-1.99C43.945,33.463,44.358,33.376,43.945,34.544z"/><path fill="#fff" d="M28.577,30.608c0.826-0.865,1.198-2.465-0.247-2.379c0,0-0.537-0.735-1.694-0.389	c-1.156,0.346-2.603,1.946-1.57,2.984c0,0.476,0.124,1.384,0.743,0.562C26.47,31.69,27.751,31.473,28.577,30.608z M25.437,30.132	c-0.124-0.649,0.207-1.254,1.281-1.471C26.718,28.663,25.603,29.613,25.437,30.132z M27.916,29.052	c1.156-0.476,0.785,0.691,0.166,1.167c-0.62,0.476-1.239,0.606-1.983,0.389C26.099,30.608,26.759,29.528,27.916,29.052z"/><path fill="#fff" d="M51.863,33.788h-2.487c-0.052-0.909-0.15-1.877-0.332-2.789c-0.01-0.051-0.049-0.09-0.095-0.095	c-0.272-0.023-0.321-0.007-0.654,0.002c-0.091,0.003-0.155,0.098-0.131,0.194c0.103,0.42,0.202,1.491,0.252,2.686h-2.362	c-0.073,0-0.134,0.066-0.138,0.145l-0.063,0.692c-0.005,0.111,0.081,0.201,0.181,0.189l2.41,0.009	c0.014,0.98-0.012,1.945-0.104,2.63c-0.009,0.069,0.04,0.127,0.102,0.131c0.379,0.025,0.668,0.034,0.811,0.036	c0.058,0.001,0.105-0.047,0.109-0.111c0.022-0.332,0.079-1.377,0.052-2.682l2.446,0.009c0.076,0,0.138-0.068,0.138-0.153v-0.744	C52.002,33.856,51.939,33.788,51.863,33.788z"/><linearGradient id="nJ5TvivVyghDKqtRHOxlIc" x1="49.334" x2="25.101" y1="40.161" y2="44.76" gradientTransform="matrix(1 0 0 -1 0 66)" gradientUnits="userSpaceOnUse"><stop offset="0" stop-color="#6af1fb"/><stop offset=".285" stop-color="#58e0f4"/><stop offset=".933" stop-color="#0097ec"/></linearGradient><path fill="url(#nJ5TvivVyghDKqtRHOxlIc)" d="M48.61,29.638c0,0.076-0.048,0.143-0.114,0.162l-0.429,0.153L47.914,30	c-0.067,0.019-0.133,0-0.171-0.047c-0.019-0.019-0.029-0.038-0.038-0.057l-0.095-0.257c-2.257-5.914-7.99-10.114-14.686-10.114	c-2.457,0-4.886,0.581-7.057,1.676c-0.057,0.029-0.124,0.038-0.19,0.038c-0.267,0-0.476-0.219-0.476-0.476	c0-0.152,0.067-0.295,0.181-0.381c2.324-1.181,4.914-1.809,7.543-1.809c7.114,0,13.191,4.476,15.581,10.752L48.6,29.59	C48.61,29.609,48.61,29.628,48.61,29.638z"/><linearGradient id="nJ5TvivVyghDKqtRHOxlId" x1="18.499" x2="18.499" y1="21.959" y2="64.226" gradientTransform="matrix(1 0 0 -1 0 66)" gradientUnits="userSpaceOnUse"><stop offset="0" stop-color="#005ce2"/><stop offset=".278" stop-color="#0080e8"/><stop offset=".569" stop-color="#009ced"/><stop offset=".82" stop-color="#00b0f1"/><stop offset="1" stop-color="#00b5f2"/></linearGradient><path fill="url(#nJ5TvivVyghDKqtRHOxlId)" d="M26,13h-8c-0.55,0-1.05,0.22-1.41,0.59C16.22,13.95,16,14.45,16,15s0.22,1.05,0.59,1.41	C16.95,16.78,17.45,17,18,17c0.83,0,1.58,0.34,2.12,0.88S21,19.17,21,20c0,1.66-1.34,3-3,3H9v-4c0-5.52,4.48-10,10-10h6.89	c1,0,1.92,0.68,2.08,1.66C28.18,11.92,27.21,13,26,13z"/><linearGradient id="nJ5TvivVyghDKqtRHOxlIe" x1="45.501" x2="45.501" y1="11.878" y2="119.753" gradientTransform="matrix(1 0 0 -1 0 66)" gradientUnits="userSpaceOnUse"><stop offset="0" stop-color="#005ce2"/><stop offset=".278" stop-color="#0080e8"/><stop offset=".569" stop-color="#009ced"/><stop offset=".82" stop-color="#00b0f1"/><stop offset="1" stop-color="#00b5f2"/></linearGradient><path fill="url(#nJ5TvivVyghDKqtRHOxlIe)" d="M55,42v3c0,5.52-4.48,10-10,10h-7c-1.21,0-2.18-1.08-1.97-2.34c0.16-0.98,1.08-1.66,2.08-1.66	H47c0.55,0,1.05-0.22,1.41-0.59C48.78,50.05,49,49.55,49,49c0-1.1-0.9-2-2-2h-2.5c-1.47,0-2.64-1.26-2.49-2.76	c0.13-1.3,1.32-2.24,2.63-2.24H55z"/></svg>