<?xml version="1.0"?><svg fill="#000000" xmlns="http://www.w3.org/2000/svg"  viewBox="0 0 50 50" width="50px" height="50px">    <path d="M 0 14 L 0 36 L 5 36 L 5 27 L 8 27 L 8 36 L 13 36 L 13 14 L 8 14 L 8 22 L 5 22 L 5 14 L 0 14 z M 15 14 L 15 36 L 23.375 36 C 26.53051 36 29.131743 33.659451 29.556641 30.621094 C 31.47606 33.838735 34.98126 36 39 36 C 45.075 36 50 31.075 50 25 C 50 18.925 45.075 14 39 14 C 34.98126 14 31.47606 16.161265 29.556641 19.378906 C 29.131743 16.340549 26.53051 14 23.375 14 L 15 14 z M 20 19 L 23 19 C 24.105 19 25 19.895 25 21 C 25 22.105 24.105 23 23 23 L 20 23 L 20 19 z M 39 19 C 42.314 19 45 21.686 45 25 C 45 28.314 42.314 31 39 31 C 35.686 31 33 28.314 33 25 C 33 21.686 35.686 19 39 19 z M 39 21 A 4 4 0 0 0 35 25 A 4 4 0 0 0 39 29 A 4 4 0 0 0 43 25 A 4 4 0 0 0 39 21 z M 28 23.75 C 27.883 24.257 27.864 25.745 28 26.25 C 27.619 25.672 27.03125 25.25 26.03125 25 C 27.03125 24.75 27.665 24.16 28 23.75 z M 20 27.75 L 23 27.75 C 24.105 27.75 25 28.645 25 29.75 C 25 30.855 24.105 31.75 23 31.75 L 20 31.75 L 20 27.75 z" clip-rule="evenodd" fill-rule="evenodd"/></svg>