<svg xmlns="http://www.w3.org/2000/svg"  viewBox="0 0 64 64" width="64px" height="64px"><linearGradient id="jpLBByPM8KMiBEX4nxBfka" x1="52.5" x2="52.5" y1="6.5" y2="57.671" gradientUnits="userSpaceOnUse" spreadMethod="reflect"><stop offset="0" stop-color="#1a6dff"/><stop offset="1" stop-color="#c822ff"/></linearGradient><path fill="url(#jpLBByPM8KMiBEX4nxBfka)" d="M52.5,19c-3.57,0-5.5,6.7-5.5,13s1.93,13,5.5,13S58,38.3,58,32S56.07,19,52.5,19z M52.5,43 c-1.43,0-3.5-4.29-3.5-11c0-6.71,2.07-11,3.5-11S56,25.29,56,32C56,38.71,53.93,43,52.5,43z"/><linearGradient id="jpLBByPM8KMiBEX4nxBfkb" x1="30.034" x2="30.034" y1="6.5" y2="57.671" gradientUnits="userSpaceOnUse" spreadMethod="reflect"><stop offset="0" stop-color="#1a6dff"/><stop offset="1" stop-color="#c822ff"/></linearGradient><path fill="url(#jpLBByPM8KMiBEX4nxBfkb)" d="M44,32c0-6.48,1.17-14.49,6.75-15.83l1.64-0.39l-1.14-1.25C46.33,9.11,39.32,6,32,6 c-7.36,0-14.41,3.15-19.34,8.63l-1.05,1.17l1.5,0.46c4.52,1.37,5.65,5.1,5.85,7.74H14.9c-0.31-1.94-1.37-4.36-3.92-4.36 c-0.78,0-1.49,0.25-2.11,0.76c-0.33,0.27-0.8,0.89-1.01,1.72c-0.35,1.36-0.49,4.03,2.45,6.65c0.75,0.66,1.59,1.27,2.48,1.92 C15.84,32.9,19,35.18,19,40c0,4.93-2.85,7.59-5.5,7.98l-1.88,0.27l1.29,1.39C17.82,54.96,24.78,58,32,58 c7.32,0,14.33-3.11,19.25-8.53l1.14-1.25l-1.64-0.39C45.17,46.49,44,38.48,44,32z M32,56c-6.12,0-12.02-2.37-16.46-6.54 C18.41,48.25,21,45.09,21,40c0-5.84-3.9-8.66-7.04-10.93c-0.85-0.62-1.65-1.2-2.32-1.79c-2.04-1.82-2.13-3.55-1.85-4.67 c0.11-0.43,0.35-0.67,0.35-0.67c0.26-0.21,0.52-0.3,0.84-0.3c1.81,0,2.02,3.37,2.02,3.4L13.04,26H21v-1c0-2.33-0.6-7.7-5.83-10.1 C19.64,10.5,25.7,8,32,8c6.24,0,12.25,2.45,16.71,6.77C44.31,16.82,42,22.72,42,32c0,9.28,2.31,15.18,6.71,17.23 C44.25,53.55,38.24,56,32,56z"/><linearGradient id="jpLBByPM8KMiBEX4nxBfkc" x1="11" x2="11" y1="6.498" y2="57.672" gradientUnits="userSpaceOnUse" spreadMethod="reflect"><stop offset="0" stop-color="#1a6dff"/><stop offset="1" stop-color="#c822ff"/></linearGradient><path fill="url(#jpLBByPM8KMiBEX4nxBfkc)" d="M10.91,33.62l-0.37-0.24c-1.75-1.11-2.85-2.11-2.87-2.12l-1.64-1.5L6,31.99 c0,0.16-0.05,4.09,0.76,6.6C8,42.43,9.6,44,12.29,44c1.79,0,3.71-1.12,3.71-4.27C16,36.83,13.18,35.05,10.91,33.62z M12.29,42 c-1.27,0-2.42-0.3-3.62-4.02c-0.37-1.12-0.53-2.64-0.61-3.86c0.41,0.3,0.88,0.62,1.4,0.95l0.38,0.24c1.95,1.23,4.16,2.62,4.16,4.42 C14,41.24,13.42,42,12.29,42z"/><linearGradient id="jpLBByPM8KMiBEX4nxBfkd" x1="52.5" x2="52.5" y1="8.167" y2="55.825" gradientUnits="userSpaceOnUse" spreadMethod="reflect"><stop offset="0" stop-color="#6dc7ff"/><stop offset="1" stop-color="#e6abff"/></linearGradient><path fill="url(#jpLBByPM8KMiBEX4nxBfkd)" d="M52.5 21A3.5 11 0 1 0 52.5 43A3.5 11 0 1 0 52.5 21Z"/><linearGradient id="jpLBByPM8KMiBEX4nxBfke" x1="29.192" x2="29.192" y1="8.167" y2="55.825" gradientUnits="userSpaceOnUse" spreadMethod="reflect"><stop offset="0" stop-color="#6dc7ff"/><stop offset="1" stop-color="#e6abff"/></linearGradient><path fill="url(#jpLBByPM8KMiBEX4nxBfke)" d="M42,32c0-9.28,2.31-15.18,6.71-17.23C44.25,10.45,38.24,8,32,8c-6.3,0-12.36,2.5-16.83,6.9 C20.4,17.3,21,22.67,21,25v1h-7.96L13,25.04c0-0.03-0.21-3.4-2.02-3.4c-0.32,0-0.58,0.09-0.84,0.3c0,0-0.24,0.24-0.35,0.67 c-0.28,1.12-0.19,2.85,1.85,4.67c0.67,0.59,1.47,1.17,2.32,1.79C17.1,31.34,21,34.16,21,40c0,5.09-2.59,8.25-5.46,9.46 C19.98,53.63,25.88,56,32,56c6.24,0,12.25-2.45,16.71-6.77C44.31,47.18,42,41.28,42,32z M41,50h-8V36h-3v14h-8V15h8v13h3V15h8V50z"/><linearGradient id="jpLBByPM8KMiBEX4nxBfkf" x1="11.03" x2="11.03" y1="8.167" y2="55.825" gradientUnits="userSpaceOnUse" spreadMethod="reflect"><stop offset="0" stop-color="#6dc7ff"/><stop offset="1" stop-color="#e6abff"/></linearGradient><path fill="url(#jpLBByPM8KMiBEX4nxBfkf)" d="M14,39.73c0,1.51-0.58,2.27-1.71,2.27c-1.27,0-2.42-0.3-3.62-4.02 c-0.37-1.12-0.53-2.64-0.61-3.86c0.41,0.3,0.88,0.62,1.4,0.95l0.38,0.24C11.79,36.54,14,37.93,14,39.73z"/><linearGradient id="jpLBByPM8KMiBEX4nxBfkg" x1="31.5" x2="31.5" y1="6.5" y2="57.671" gradientUnits="userSpaceOnUse" spreadMethod="reflect"><stop offset="0" stop-color="#1a6dff"/><stop offset="1" stop-color="#c822ff"/></linearGradient><path fill="url(#jpLBByPM8KMiBEX4nxBfkg)" d="M33,15v13h-3V15h-8v35h8V36h3v14h8V15H33z M39,48h-4V34h-7v14h-4V17h4v13h7V17h4V48z"/></svg>